<svg width="414" height="571" viewBox="0 0 414 571" fill="none" xmlns="http://www.w3.org/2000/svg">
<g clip-path="url(#clip0_328_5568)">
<rect width="414" height="571" rx="20" fill="#060611"/>
<path d="M515.383 0H262L270.078 630H524L515.383 0Z" fill="#161621" fill-opacity="0.7"/>
<path d="M246 0H-1.04308e-05V630H238.709L246 0Z" fill="#161621" fill-opacity="0.7"/>
<rect x="129.077" y="103.719" width="155.923" height="35.5614" rx="7.29465" fill="#1B363A"/>
<path d="M150.653 127.078L147.838 116.427H149.922L151.839 124.902L154.091 116.427H156.236L158.427 124.902L160.344 116.427H162.444L159.553 127.078H157.241L155.126 119.181L152.95 127.078H150.653ZM165.073 127.078V116.427H172.026V117.994H167.02V120.916H171.569V122.437H167.02V125.511H172.026V127.078H165.073ZM174.675 120.17L175.512 116.427H177.566L176.014 120.17H174.675ZM180.315 127.078V116.427H184.225C185.077 116.427 185.777 116.574 186.324 116.869C186.882 117.153 187.298 117.543 187.572 118.04C187.846 118.527 187.983 119.07 187.983 119.668C187.983 120.317 187.81 120.911 187.466 121.448C187.131 121.986 186.603 122.376 185.883 122.62L188.089 127.078H185.853L183.875 122.878H182.262V127.078H180.315ZM182.262 121.448H184.103C184.752 121.448 185.229 121.291 185.533 120.977C185.838 120.662 185.99 120.246 185.99 119.729C185.99 119.222 185.838 118.816 185.533 118.512C185.239 118.207 184.757 118.055 184.088 118.055H182.262V121.448ZM191.011 127.078V116.427H197.964V117.994H192.959V120.916H197.508V122.437H192.959V125.511H197.964V127.078H191.011ZM205.867 127.078V116.427H207.815V120.855H212.592V116.427H214.54V127.078H212.592V122.437H207.815V127.078H205.867ZM217.827 127.078V116.427H219.774V127.078H217.827ZM223.056 127.078V116.427H226.966C227.818 116.427 228.518 116.574 229.065 116.869C229.623 117.153 230.039 117.543 230.313 118.04C230.587 118.527 230.724 119.07 230.724 119.668C230.724 120.317 230.551 120.911 230.207 121.448C229.872 121.986 229.344 122.376 228.624 122.62L230.83 127.078H228.594L226.616 122.878H225.003V127.078H223.056ZM225.003 121.448H226.844C227.493 121.448 227.97 121.291 228.274 120.977C228.579 120.662 228.731 120.246 228.731 119.729C228.731 119.222 228.579 118.816 228.274 118.512C227.98 118.207 227.498 118.055 226.829 118.055H225.003V121.448ZM233.752 127.078V116.427H235.7V127.078H233.752ZM238.981 127.078V116.427H240.929L245.934 123.928V116.427H247.882V127.078H245.934L240.929 119.592V127.078H238.981ZM255.819 127.26C254.815 127.26 253.938 127.032 253.187 126.576C252.437 126.119 251.853 125.485 251.437 124.674C251.022 123.852 250.814 122.899 250.814 121.813C250.814 120.718 251.027 119.754 251.453 118.923C251.889 118.081 252.503 117.426 253.294 116.96C254.095 116.483 255.043 116.245 256.139 116.245C257.386 116.245 258.421 116.544 259.243 117.142C260.064 117.741 260.597 118.568 260.84 119.622H258.664C258.502 119.125 258.208 118.74 257.782 118.466C257.356 118.182 256.808 118.04 256.139 118.04C255.074 118.04 254.252 118.38 253.674 119.059C253.096 119.729 252.807 120.652 252.807 121.829C252.807 123.005 253.091 123.918 253.659 124.567C254.237 125.206 255.018 125.526 256.002 125.526C256.965 125.526 257.691 125.267 258.178 124.75C258.675 124.222 258.974 123.533 259.075 122.681H256.382V121.22H261.038V127.078H259.243L259.09 125.678C258.746 126.185 258.315 126.576 257.797 126.849C257.28 127.123 256.621 127.26 255.819 127.26ZM264.514 123.715L264.301 116.427H266.385L266.157 123.715H264.514ZM265.381 127.184C265.016 127.184 264.716 127.073 264.483 126.849C264.26 126.626 264.148 126.357 264.148 126.043C264.148 125.718 264.26 125.445 264.483 125.221C264.716 124.998 265.016 124.887 265.381 124.887C265.726 124.887 266.01 124.998 266.233 125.221C266.466 125.445 266.583 125.718 266.583 126.043C266.583 126.357 266.466 126.626 266.233 126.849C266.01 127.073 265.726 127.184 265.381 127.184Z" fill="#5AC7B9"/>
<path d="M54.6764 190H62.7764V225H54.6764V190ZM85.3826 197.7C88.716 197.7 91.3993 198.7 93.4326 200.7C95.4993 202.7 96.5326 205.667 96.5326 209.6V225H88.7326V210.8C88.7326 208.667 88.266 207.083 87.3326 206.05C86.3993 204.983 85.0493 204.45 83.2826 204.45C81.316 204.45 79.7493 205.067 78.5826 206.3C77.416 207.5 76.8326 209.3 76.8326 211.7V225H69.0326V198.1H76.4826V201.25C77.516 200.117 78.7993 199.25 80.3326 198.65C81.866 198.017 83.5493 197.7 85.3826 197.7ZM119.453 223.7C118.686 224.267 117.736 224.7 116.603 225C115.503 225.267 114.336 225.4 113.103 225.4C109.903 225.4 107.42 224.583 105.653 222.95C103.92 221.317 103.053 218.917 103.053 215.75V204.7H98.9029V198.7H103.053V192.15H110.853V198.7H117.553V204.7H110.853V215.65C110.853 216.783 111.136 217.667 111.703 218.3C112.303 218.9 113.136 219.2 114.203 219.2C115.436 219.2 116.486 218.867 117.353 218.2L119.453 223.7ZM147.851 211.65C147.851 211.75 147.801 212.45 147.701 213.75H127.351C127.718 215.417 128.585 216.733 129.951 217.7C131.318 218.667 133.018 219.15 135.051 219.15C136.451 219.15 137.685 218.95 138.751 218.55C139.851 218.117 140.868 217.45 141.801 216.55L145.951 221.05C143.418 223.95 139.718 225.4 134.851 225.4C131.818 225.4 129.135 224.817 126.801 223.65C124.468 222.45 122.668 220.8 121.401 218.7C120.135 216.6 119.501 214.217 119.501 211.55C119.501 208.917 120.118 206.55 121.351 204.45C122.618 202.317 124.335 200.667 126.501 199.5C128.701 198.3 131.151 197.7 133.851 197.7C136.485 197.7 138.868 198.267 141.001 199.4C143.135 200.533 144.801 202.167 146.001 204.3C147.235 206.4 147.851 208.85 147.851 211.65ZM133.901 203.6C132.135 203.6 130.651 204.1 129.451 205.1C128.251 206.1 127.518 207.467 127.251 209.2H140.501C140.235 207.5 139.501 206.15 138.301 205.15C137.101 204.117 135.635 203.6 133.901 203.6ZM158.994 201.65C159.928 200.35 161.178 199.367 162.744 198.7C164.344 198.033 166.178 197.7 168.244 197.7V204.9C167.378 204.833 166.794 204.8 166.494 204.8C164.261 204.8 162.511 205.433 161.244 206.7C159.978 207.933 159.344 209.8 159.344 212.3V225H151.544V198.1H158.994V201.65ZM197.488 211.65C197.488 211.75 197.438 212.45 197.338 213.75H176.988C177.355 215.417 178.221 216.733 179.588 217.7C180.955 218.667 182.655 219.15 184.688 219.15C186.088 219.15 187.321 218.95 188.388 218.55C189.488 218.117 190.505 217.45 191.438 216.55L195.588 221.05C193.055 223.95 189.355 225.4 184.488 225.4C181.455 225.4 178.771 224.817 176.438 223.65C174.105 222.45 172.305 220.8 171.038 218.7C169.771 216.6 169.138 214.217 169.138 211.55C169.138 208.917 169.755 206.55 170.988 204.45C172.255 202.317 173.971 200.667 176.138 199.5C178.338 198.3 180.788 197.7 183.488 197.7C186.121 197.7 188.505 198.267 190.638 199.4C192.771 200.533 194.438 202.167 195.638 204.3C196.871 206.4 197.488 208.85 197.488 211.65ZM183.538 203.6C181.771 203.6 180.288 204.1 179.088 205.1C177.888 206.1 177.155 207.467 176.888 209.2H190.138C189.871 207.5 189.138 206.15 187.938 205.15C186.738 204.117 185.271 203.6 183.538 203.6ZM210.231 225.4C207.998 225.4 205.814 225.133 203.681 224.6C201.548 224.033 199.848 223.333 198.581 222.5L201.181 216.9C202.381 217.667 203.831 218.3 205.531 218.8C207.231 219.267 208.898 219.5 210.531 219.5C213.831 219.5 215.481 218.683 215.481 217.05C215.481 216.283 215.031 215.733 214.131 215.4C213.231 215.067 211.848 214.783 209.981 214.55C207.781 214.217 205.964 213.833 204.531 213.4C203.098 212.967 201.848 212.2 200.781 211.1C199.748 210 199.231 208.433 199.231 206.4C199.231 204.7 199.714 203.2 200.681 201.9C201.681 200.567 203.114 199.533 204.981 198.8C206.881 198.067 209.114 197.7 211.681 197.7C213.581 197.7 215.464 197.917 217.331 198.35C219.231 198.75 220.798 199.317 222.031 200.05L219.431 205.6C217.064 204.267 214.481 203.6 211.681 203.6C210.014 203.6 208.764 203.833 207.931 204.3C207.098 204.767 206.681 205.367 206.681 206.1C206.681 206.933 207.131 207.517 208.031 207.85C208.931 208.183 210.364 208.5 212.331 208.8C214.531 209.167 216.331 209.567 217.731 210C219.131 210.4 220.348 211.15 221.381 212.25C222.414 213.35 222.931 214.883 222.931 216.85C222.931 218.517 222.431 220 221.431 221.3C220.431 222.6 218.964 223.617 217.031 224.35C215.131 225.05 212.864 225.4 210.231 225.4ZM243.594 223.7C242.827 224.267 241.877 224.7 240.744 225C239.644 225.267 238.477 225.4 237.244 225.4C234.044 225.4 231.56 224.583 229.794 222.95C228.06 221.317 227.194 218.917 227.194 215.75V204.7H223.044V198.7H227.194V192.15H234.994V198.7H241.694V204.7H234.994V215.65C234.994 216.783 235.277 217.667 235.844 218.3C236.444 218.9 237.277 219.2 238.344 219.2C239.577 219.2 240.627 218.867 241.494 218.2L243.594 223.7ZM271.992 211.65C271.992 211.75 271.942 212.45 271.842 213.75H251.492C251.859 215.417 252.725 216.733 254.092 217.7C255.459 218.667 257.159 219.15 259.192 219.15C260.592 219.15 261.825 218.95 262.892 218.55C263.992 218.117 265.009 217.45 265.942 216.55L270.092 221.05C267.559 223.95 263.859 225.4 258.992 225.4C255.959 225.4 253.275 224.817 250.942 223.65C248.609 222.45 246.809 220.8 245.542 218.7C244.275 216.6 243.642 214.217 243.642 211.55C243.642 208.917 244.259 206.55 245.492 204.45C246.759 202.317 248.475 200.667 250.642 199.5C252.842 198.3 255.292 197.7 257.992 197.7C260.625 197.7 263.009 198.267 265.142 199.4C267.275 200.533 268.942 202.167 270.142 204.3C271.375 206.4 271.992 208.85 271.992 211.65ZM258.042 203.6C256.275 203.6 254.792 204.1 253.592 205.1C252.392 206.1 251.659 207.467 251.392 209.2H264.642C264.375 207.5 263.642 206.15 262.442 205.15C261.242 204.117 259.775 203.6 258.042 203.6ZM303.085 187.9V225H295.635V221.9C293.702 224.233 290.902 225.4 287.235 225.4C284.702 225.4 282.402 224.833 280.335 223.7C278.302 222.567 276.702 220.95 275.535 218.85C274.368 216.75 273.785 214.317 273.785 211.55C273.785 208.783 274.368 206.35 275.535 204.25C276.702 202.15 278.302 200.533 280.335 199.4C282.402 198.267 284.702 197.7 287.235 197.7C290.668 197.7 293.352 198.783 295.285 200.95V187.9H303.085ZM288.585 219C290.552 219 292.185 218.333 293.485 217C294.785 215.633 295.435 213.817 295.435 211.55C295.435 209.283 294.785 207.483 293.485 206.15C292.185 204.783 290.552 204.1 288.585 204.1C286.585 204.1 284.935 204.783 283.635 206.15C282.335 207.483 281.685 209.283 281.685 211.55C281.685 213.817 282.335 215.633 283.635 217C284.935 218.333 286.585 219 288.585 219ZM321.464 198.1H329.264V225H321.464V198.1ZM325.364 194.35C323.931 194.35 322.764 193.933 321.864 193.1C320.964 192.267 320.514 191.233 320.514 190C320.514 188.767 320.964 187.733 321.864 186.9C322.764 186.067 323.931 185.65 325.364 185.65C326.798 185.65 327.964 186.05 328.864 186.85C329.764 187.65 330.214 188.65 330.214 189.85C330.214 191.15 329.764 192.233 328.864 193.1C327.964 193.933 326.798 194.35 325.364 194.35ZM351.353 197.7C354.687 197.7 357.37 198.7 359.403 200.7C361.47 202.7 362.503 205.667 362.503 209.6V225H354.703V210.8C354.703 208.667 354.237 207.083 353.303 206.05C352.37 204.983 351.02 204.45 349.253 204.45C347.287 204.45 345.72 205.067 344.553 206.3C343.387 207.5 342.803 209.3 342.803 211.7V225H335.003V198.1H342.453V201.25C343.487 200.117 344.77 199.25 346.303 198.65C347.837 198.017 349.52 197.7 351.353 197.7ZM75.624 258.7C78.124 258.7 80.3907 259.283 82.424 260.45C84.4907 261.583 86.1074 263.2 87.274 265.3C88.4407 267.367 89.024 269.783 89.024 272.55C89.024 275.317 88.4407 277.75 87.274 279.85C86.1074 281.917 84.4907 283.533 82.424 284.7C80.3907 285.833 78.124 286.4 75.624 286.4C71.924 286.4 69.1074 285.233 67.174 282.9V286H59.724V248.9H67.524V261.95C69.4907 259.783 72.1907 258.7 75.624 258.7ZM74.274 280C76.274 280 77.9074 279.333 79.174 278C80.474 276.633 81.124 274.817 81.124 272.55C81.124 270.283 80.474 268.483 79.174 267.15C77.9074 265.783 76.274 265.1 74.274 265.1C72.274 265.1 70.624 265.783 69.324 267.15C68.0574 268.483 67.424 270.283 67.424 272.55C67.424 274.817 68.0574 276.633 69.324 278C70.624 279.333 72.274 280 74.274 280ZM119.846 259.1V286H112.446V282.8C111.412 283.967 110.179 284.867 108.746 285.5C107.312 286.1 105.762 286.4 104.096 286.4C100.562 286.4 97.7622 285.383 95.6955 283.35C93.6288 281.317 92.5955 278.3 92.5955 274.3V259.1H100.396V273.15C100.396 277.483 102.212 279.65 105.846 279.65C107.712 279.65 109.212 279.05 110.346 277.85C111.479 276.617 112.046 274.8 112.046 272.4V259.1H119.846ZM125.572 259.1H133.372V286H125.572V259.1ZM129.472 255.35C128.038 255.35 126.872 254.933 125.972 254.1C125.072 253.267 124.622 252.233 124.622 251C124.622 249.767 125.072 248.733 125.972 247.9C126.872 247.067 128.038 246.65 129.472 246.65C130.905 246.65 132.072 247.05 132.972 247.85C133.872 248.65 134.322 249.65 134.322 250.85C134.322 252.15 133.872 253.233 132.972 254.1C132.072 254.933 130.905 255.35 129.472 255.35ZM139.111 248.9H146.911V286H139.111V248.9ZM180.05 248.9V286H172.6V282.9C170.666 285.233 167.866 286.4 164.2 286.4C161.666 286.4 159.366 285.833 157.3 284.7C155.266 283.567 153.666 281.95 152.5 279.85C151.333 277.75 150.75 275.317 150.75 272.55C150.75 269.783 151.333 267.35 152.5 265.25C153.666 263.15 155.266 261.533 157.3 260.4C159.366 259.267 161.666 258.7 164.2 258.7C167.633 258.7 170.316 259.783 172.25 261.95V248.9H180.05ZM165.55 280C167.516 280 169.15 279.333 170.45 278C171.75 276.633 172.4 274.817 172.4 272.55C172.4 270.283 171.75 268.483 170.45 267.15C169.15 265.783 167.516 265.1 165.55 265.1C163.55 265.1 161.9 265.783 160.6 267.15C159.3 268.483 158.65 270.283 158.65 272.55C158.65 274.817 159.3 276.633 160.6 278C161.9 279.333 163.55 280 165.55 280ZM185.769 259.1H193.569V286H185.769V259.1ZM189.669 255.35C188.236 255.35 187.069 254.933 186.169 254.1C185.269 253.267 184.819 252.233 184.819 251C184.819 249.767 185.269 248.733 186.169 247.9C187.069 247.067 188.236 246.65 189.669 246.65C191.102 246.65 192.269 247.05 193.169 247.85C194.069 248.65 194.519 249.65 194.519 250.85C194.519 252.15 194.069 253.233 193.169 254.1C192.269 254.933 191.102 255.35 189.669 255.35ZM215.658 258.7C218.991 258.7 221.675 259.7 223.708 261.7C225.775 263.7 226.808 266.667 226.808 270.6V286H219.008V271.8C219.008 269.667 218.541 268.083 217.608 267.05C216.675 265.983 215.325 265.45 213.558 265.45C211.591 265.45 210.025 266.067 208.858 267.3C207.691 268.5 207.108 270.3 207.108 272.7V286H199.308V259.1H206.758V262.25C207.791 261.117 209.075 260.25 210.608 259.65C212.141 259.017 213.825 258.7 215.658 258.7ZM260.421 259.1V281.5C260.421 286.433 259.138 290.1 256.571 292.5C254.005 294.9 250.255 296.1 245.321 296.1C242.721 296.1 240.255 295.783 237.921 295.15C235.588 294.517 233.655 293.6 232.121 292.4L235.221 286.8C236.355 287.733 237.788 288.467 239.521 289C241.255 289.567 242.988 289.85 244.721 289.85C247.421 289.85 249.405 289.233 250.671 288C251.971 286.8 252.621 284.967 252.621 282.5V281.35C250.588 283.583 247.755 284.7 244.121 284.7C241.655 284.7 239.388 284.167 237.321 283.1C235.288 282 233.671 280.467 232.471 278.5C231.271 276.533 230.671 274.267 230.671 271.7C230.671 269.133 231.271 266.867 232.471 264.9C233.671 262.933 235.288 261.417 237.321 260.35C239.388 259.25 241.655 258.7 244.121 258.7C248.021 258.7 250.988 259.983 253.021 262.55V259.1H260.421ZM245.671 278.3C247.738 278.3 249.421 277.7 250.721 276.5C252.055 275.267 252.721 273.667 252.721 271.7C252.721 269.733 252.055 268.15 250.721 266.95C249.421 265.717 247.738 265.1 245.671 265.1C243.605 265.1 241.905 265.717 240.571 266.95C239.238 268.15 238.571 269.733 238.571 271.7C238.571 273.667 239.238 275.267 240.571 276.5C241.905 277.7 243.605 278.3 245.671 278.3ZM296.191 284.7C295.425 285.267 294.475 285.7 293.341 286C292.241 286.267 291.075 286.4 289.841 286.4C286.641 286.4 284.158 285.583 282.391 283.95C280.658 282.317 279.791 279.917 279.791 276.75V265.7H275.641V259.7H279.791V253.15H287.591V259.7H294.291V265.7H287.591V276.65C287.591 277.783 287.875 278.667 288.441 279.3C289.041 279.9 289.875 280.2 290.941 280.2C292.175 280.2 293.225 279.867 294.091 279.2L296.191 284.7ZM315.42 258.7C318.753 258.7 321.436 259.7 323.47 261.7C325.536 263.7 326.57 266.667 326.57 270.6V286H318.77V271.8C318.77 269.667 318.303 268.083 317.37 267.05C316.436 265.983 315.086 265.45 313.32 265.45C311.353 265.45 309.786 266.067 308.62 267.3C307.453 268.5 306.87 270.3 306.87 272.7V286H299.07V248.9H306.87V261.9C307.903 260.867 309.153 260.083 310.62 259.55C312.086 258.983 313.686 258.7 315.42 258.7ZM358.783 272.65C358.783 272.75 358.733 273.45 358.633 274.75H338.283C338.65 276.417 339.516 277.733 340.883 278.7C342.25 279.667 343.95 280.15 345.983 280.15C347.383 280.15 348.616 279.95 349.683 279.55C350.783 279.117 351.8 278.45 352.733 277.55L356.883 282.05C354.35 284.95 350.65 286.4 345.783 286.4C342.75 286.4 340.066 285.817 337.733 284.65C335.4 283.45 333.6 281.8 332.333 279.7C331.066 277.6 330.433 275.217 330.433 272.55C330.433 269.917 331.05 267.55 332.283 265.45C333.55 263.317 335.266 261.667 337.433 260.5C339.633 259.3 342.083 258.7 344.783 258.7C347.416 258.7 349.8 259.267 351.933 260.4C354.066 261.533 355.733 263.167 356.933 265.3C358.166 267.4 358.783 269.85 358.783 272.65ZM344.833 264.6C343.066 264.6 341.583 265.1 340.383 266.1C339.183 267.1 338.45 268.467 338.183 270.2H351.433C351.166 268.5 350.433 267.15 349.233 266.15C348.033 265.117 346.566 264.6 344.833 264.6ZM112.093 320.7H118.993V326.7H112.293V347H104.493V326.7H100.343V320.7H104.493V319.5C104.493 316.433 105.393 314 107.193 312.2C109.027 310.4 111.593 309.5 114.893 309.5C116.06 309.5 117.16 309.633 118.193 309.9C119.26 310.133 120.143 310.483 120.843 310.95L118.793 316.6C117.893 315.967 116.843 315.65 115.643 315.65C113.277 315.65 112.093 316.95 112.093 319.55V320.7ZM148.479 320.1V347H141.079V343.8C140.046 344.967 138.813 345.867 137.379 346.5C135.946 347.1 134.396 347.4 132.729 347.4C129.196 347.4 126.396 346.383 124.329 344.35C122.263 342.317 121.229 339.3 121.229 335.3V320.1H129.029V334.15C129.029 338.483 130.846 340.65 134.479 340.65C136.346 340.65 137.846 340.05 138.979 338.85C140.113 337.617 140.679 335.8 140.679 333.4V320.1H148.479ZM171.555 345.7C170.789 346.267 169.839 346.7 168.705 347C167.605 347.267 166.439 347.4 165.205 347.4C162.005 347.4 159.522 346.583 157.755 344.95C156.022 343.317 155.155 340.917 155.155 337.75V326.7H151.005V320.7H155.155V314.15H162.955V320.7H169.655V326.7H162.955V337.65C162.955 338.783 163.239 339.667 163.805 340.3C164.405 340.9 165.239 341.2 166.305 341.2C167.539 341.2 168.589 340.867 169.455 340.2L171.555 345.7ZM201.534 320.1V347H194.134V343.8C193.101 344.967 191.867 345.867 190.434 346.5C189.001 347.1 187.451 347.4 185.784 347.4C182.251 347.4 179.451 346.383 177.384 344.35C175.317 342.317 174.284 339.3 174.284 335.3V320.1H182.084V334.15C182.084 338.483 183.901 340.65 187.534 340.65C189.401 340.65 190.901 340.05 192.034 338.85C193.167 337.617 193.734 335.8 193.734 333.4V320.1H201.534ZM214.71 323.65C215.643 322.35 216.893 321.367 218.46 320.7C220.06 320.033 221.893 319.7 223.96 319.7V326.9C223.093 326.833 222.51 326.8 222.21 326.8C219.977 326.8 218.227 327.433 216.96 328.7C215.693 329.933 215.06 331.8 215.06 334.3V347H207.26V320.1H214.71V323.65ZM253.204 333.65C253.204 333.75 253.154 334.45 253.054 335.75H232.704C233.071 337.417 233.937 338.733 235.304 339.7C236.671 340.667 238.371 341.15 240.404 341.15C241.804 341.15 243.037 340.95 244.104 340.55C245.204 340.117 246.221 339.45 247.154 338.55L251.304 343.05C248.771 345.95 245.071 347.4 240.204 347.4C237.171 347.4 234.487 346.817 232.154 345.65C229.821 344.45 228.021 342.8 226.754 340.7C225.487 338.6 224.854 336.217 224.854 333.55C224.854 330.917 225.471 328.55 226.704 326.45C227.971 324.317 229.687 322.667 231.854 321.5C234.054 320.3 236.504 319.7 239.204 319.7C241.837 319.7 244.221 320.267 246.354 321.4C248.487 322.533 250.154 324.167 251.354 326.3C252.587 328.4 253.204 330.85 253.204 333.65ZM239.254 325.6C237.487 325.6 236.004 326.1 234.804 327.1C233.604 328.1 232.871 329.467 232.604 331.2H245.854C245.587 329.5 244.854 328.15 243.654 327.15C242.454 326.117 240.987 325.6 239.254 325.6ZM282.357 347.4C279.524 347.4 276.974 346.817 274.707 345.65C272.474 344.45 270.724 342.8 269.457 340.7C268.19 338.6 267.557 336.217 267.557 333.55C267.557 330.883 268.19 328.5 269.457 326.4C270.724 324.3 272.474 322.667 274.707 321.5C276.974 320.3 279.524 319.7 282.357 319.7C285.19 319.7 287.724 320.3 289.957 321.5C292.19 322.667 293.94 324.3 295.207 326.4C296.474 328.5 297.107 330.883 297.107 333.55C297.107 336.217 296.474 338.6 295.207 340.7C293.94 342.8 292.19 344.45 289.957 345.65C287.724 346.817 285.19 347.4 282.357 347.4ZM282.357 341C284.357 341 285.99 340.333 287.257 339C288.557 337.633 289.207 335.817 289.207 333.55C289.207 331.283 288.557 329.483 287.257 328.15C285.99 326.783 284.357 326.1 282.357 326.1C280.357 326.1 278.707 326.783 277.407 328.15C276.107 329.483 275.457 331.283 275.457 333.55C275.457 335.817 276.107 337.633 277.407 339C278.707 340.333 280.357 341 282.357 341ZM309.371 320.7H316.271V326.7H309.571V347H301.771V326.7H297.621V320.7H301.771V319.5C301.771 316.433 302.671 314 304.471 312.2C306.304 310.4 308.871 309.5 312.171 309.5C313.337 309.5 314.437 309.633 315.471 309.9C316.537 310.133 317.421 310.483 318.121 310.95L316.071 316.6C315.171 315.967 314.121 315.65 312.921 315.65C310.554 315.65 309.371 316.95 309.371 319.55V320.7Z" fill="#F5F5F5"/>
<path d="M87.8299 400.5H71.5799L68.4799 408H60.1799L75.7799 373H83.7799L99.4299 408H90.9299L87.8299 400.5ZM85.2799 394.35L79.7299 380.95L74.1799 394.35H85.2799ZM127.623 381.1V408H120.223V404.8C119.19 405.967 117.956 406.867 116.523 407.5C115.09 408.1 113.54 408.4 111.873 408.4C108.34 408.4 105.54 407.383 103.473 405.35C101.406 403.317 100.373 400.3 100.373 396.3V381.1H108.173V395.15C108.173 399.483 109.99 401.65 113.623 401.65C115.49 401.65 116.99 401.05 118.123 399.85C119.256 398.617 119.823 396.8 119.823 394.4V381.1H127.623ZM150.699 406.7C149.932 407.267 148.982 407.7 147.849 408C146.749 408.267 145.582 408.4 144.349 408.4C141.149 408.4 138.666 407.583 136.899 405.95C135.166 404.317 134.299 401.917 134.299 398.75V387.7H130.149V381.7H134.299V375.15H142.099V381.7H148.799V387.7H142.099V398.65C142.099 399.783 142.382 400.667 142.949 401.3C143.549 401.9 144.382 402.2 145.449 402.2C146.682 402.2 147.732 401.867 148.599 401.2L150.699 406.7ZM165.547 408.4C162.714 408.4 160.164 407.817 157.897 406.65C155.664 405.45 153.914 403.8 152.647 401.7C151.381 399.6 150.747 397.217 150.747 394.55C150.747 391.883 151.381 389.5 152.647 387.4C153.914 385.3 155.664 383.667 157.897 382.5C160.164 381.3 162.714 380.7 165.547 380.7C168.381 380.7 170.914 381.3 173.147 382.5C175.381 383.667 177.131 385.3 178.397 387.4C179.664 389.5 180.297 391.883 180.297 394.55C180.297 397.217 179.664 399.6 178.397 401.7C177.131 403.8 175.381 405.45 173.147 406.65C170.914 407.817 168.381 408.4 165.547 408.4ZM165.547 402C167.547 402 169.181 401.333 170.447 400C171.747 398.633 172.397 396.817 172.397 394.55C172.397 392.283 171.747 390.483 170.447 389.15C169.181 387.783 167.547 387.1 165.547 387.1C163.547 387.1 161.897 387.783 160.597 389.15C159.297 390.483 158.647 392.283 158.647 394.55C158.647 396.817 159.297 398.633 160.597 400C161.897 401.333 163.547 402 165.547 402ZM218.461 380.7C221.828 380.7 224.494 381.7 226.461 383.7C228.461 385.667 229.461 388.633 229.461 392.6V408H221.661V393.8C221.661 391.667 221.211 390.083 220.311 389.05C219.444 387.983 218.194 387.45 216.561 387.45C214.728 387.45 213.278 388.05 212.211 389.25C211.144 390.417 210.611 392.167 210.611 394.5V408H202.811V393.8C202.811 389.567 201.111 387.45 197.711 387.45C195.911 387.45 194.478 388.05 193.411 389.25C192.344 390.417 191.811 392.167 191.811 394.5V408H184.011V381.1H191.461V384.2C192.461 383.067 193.678 382.2 195.111 381.6C196.578 381 198.178 380.7 199.911 380.7C201.811 380.7 203.528 381.083 205.061 381.85C206.594 382.583 207.828 383.667 208.761 385.1C209.861 383.7 211.244 382.617 212.911 381.85C214.611 381.083 216.461 380.7 218.461 380.7ZM248.046 408.4C245.212 408.4 242.662 407.817 240.396 406.65C238.162 405.45 236.412 403.8 235.146 401.7C233.879 399.6 233.246 397.217 233.246 394.55C233.246 391.883 233.879 389.5 235.146 387.4C236.412 385.3 238.162 383.667 240.396 382.5C242.662 381.3 245.212 380.7 248.046 380.7C250.879 380.7 253.412 381.3 255.646 382.5C257.879 383.667 259.629 385.3 260.896 387.4C262.162 389.5 262.796 391.883 262.796 394.55C262.796 397.217 262.162 399.6 260.896 401.7C259.629 403.8 257.879 405.45 255.646 406.65C253.412 407.817 250.879 408.4 248.046 408.4ZM248.046 402C250.046 402 251.679 401.333 252.946 400C254.246 398.633 254.896 396.817 254.896 394.55C254.896 392.283 254.246 390.483 252.946 389.15C251.679 387.783 250.046 387.1 248.046 387.1C246.046 387.1 244.396 387.783 243.096 389.15C241.796 390.483 241.146 392.283 241.146 394.55C241.146 396.817 241.796 398.633 243.096 400C244.396 401.333 246.046 402 248.046 402ZM283.859 406.7C283.093 407.267 282.143 407.7 281.009 408C279.909 408.267 278.743 408.4 277.509 408.4C274.309 408.4 271.826 407.583 270.059 405.95C268.326 404.317 267.459 401.917 267.459 398.75V387.7H263.309V381.7H267.459V375.15H275.259V381.7H281.959V387.7H275.259V398.65C275.259 399.783 275.543 400.667 276.109 401.3C276.709 401.9 277.543 402.2 278.609 402.2C279.843 402.2 280.893 401.867 281.759 401.2L283.859 406.7ZM286.738 381.1H294.538V408H286.738V381.1ZM290.638 377.35C289.204 377.35 288.038 376.933 287.138 376.1C286.238 375.267 285.788 374.233 285.788 373C285.788 371.767 286.238 370.733 287.138 369.9C288.038 369.067 289.204 368.65 290.638 368.65C292.071 368.65 293.238 369.05 294.138 369.85C295.038 370.65 295.488 371.65 295.488 372.85C295.488 374.15 295.038 375.233 294.138 376.1C293.238 376.933 292.071 377.35 290.638 377.35ZM326.977 381.1L315.627 408H307.577L296.277 381.1H304.327L311.777 399.4L319.477 381.1H326.977ZM354.277 394.65C354.277 394.75 354.227 395.45 354.127 396.75H333.777C334.144 398.417 335.01 399.733 336.377 400.7C337.744 401.667 339.444 402.15 341.477 402.15C342.877 402.15 344.11 401.95 345.177 401.55C346.277 401.117 347.294 400.45 348.227 399.55L352.377 404.05C349.844 406.95 346.144 408.4 341.277 408.4C338.244 408.4 335.56 407.817 333.227 406.65C330.894 405.45 329.094 403.8 327.827 401.7C326.56 399.6 325.927 397.217 325.927 394.55C325.927 391.917 326.544 389.55 327.777 387.45C329.044 385.317 330.76 383.667 332.927 382.5C335.127 381.3 337.577 380.7 340.277 380.7C342.91 380.7 345.294 381.267 347.427 382.4C349.56 383.533 351.227 385.167 352.427 387.3C353.66 389.4 354.277 391.85 354.277 394.65ZM340.327 386.6C338.56 386.6 337.077 387.1 335.877 388.1C334.677 389.1 333.944 390.467 333.677 392.2H346.927C346.66 390.5 345.927 389.15 344.727 388.15C343.527 387.117 342.06 386.6 340.327 386.6ZM76.148 469.6C72.5814 469.6 69.348 468.833 66.448 467.3C63.5814 465.733 61.3147 463.583 59.648 460.85C58.0147 458.083 57.198 454.967 57.198 451.5C57.198 448.033 58.0147 444.933 59.648 442.2C61.3147 439.433 63.5814 437.283 66.448 435.75C69.348 434.183 72.598 433.4 76.198 433.4C79.2314 433.4 81.9647 433.933 84.398 435C86.8647 436.067 88.9314 437.6 90.598 439.6L85.398 444.4C83.0314 441.667 80.098 440.3 76.598 440.3C74.4314 440.3 72.498 440.783 70.798 441.75C69.098 442.683 67.7647 444 66.798 445.7C65.8647 447.4 65.398 449.333 65.398 451.5C65.398 453.667 65.8647 455.6 66.798 457.3C67.7647 459 69.098 460.333 70.798 461.3C72.498 462.233 74.4314 462.7 76.598 462.7C80.098 462.7 83.0314 461.317 85.398 458.55L90.598 463.35C88.9314 465.383 86.8647 466.933 84.398 468C81.9314 469.067 79.1814 469.6 76.148 469.6ZM105.89 469.4C103.057 469.4 100.507 468.817 98.2402 467.65C96.0069 466.45 94.2569 464.8 92.9902 462.7C91.7236 460.6 91.0902 458.217 91.0902 455.55C91.0902 452.883 91.7236 450.5 92.9902 448.4C94.2569 446.3 96.0069 444.667 98.2402 443.5C100.507 442.3 103.057 441.7 105.89 441.7C108.724 441.7 111.257 442.3 113.49 443.5C115.724 444.667 117.474 446.3 118.74 448.4C120.007 450.5 120.64 452.883 120.64 455.55C120.64 458.217 120.007 460.6 118.74 462.7C117.474 464.8 115.724 466.45 113.49 467.65C111.257 468.817 108.724 469.4 105.89 469.4ZM105.89 463C107.89 463 109.524 462.333 110.79 461C112.09 459.633 112.74 457.817 112.74 455.55C112.74 453.283 112.09 451.483 110.79 450.15C109.524 448.783 107.89 448.1 105.89 448.1C103.89 448.1 102.24 448.783 100.94 450.15C99.6402 451.483 98.9902 453.283 98.9902 455.55C98.9902 457.817 99.6402 459.633 100.94 461C102.24 462.333 103.89 463 105.89 463ZM158.804 441.7C162.171 441.7 164.837 442.7 166.804 444.7C168.804 446.667 169.804 449.633 169.804 453.6V469H162.004V454.8C162.004 452.667 161.554 451.083 160.654 450.05C159.787 448.983 158.537 448.45 156.904 448.45C155.071 448.45 153.621 449.05 152.554 450.25C151.487 451.417 150.954 453.167 150.954 455.5V469H143.154V454.8C143.154 450.567 141.454 448.45 138.054 448.45C136.254 448.45 134.821 449.05 133.754 450.25C132.687 451.417 132.154 453.167 132.154 455.5V469H124.354V442.1H131.804V445.2C132.804 444.067 134.021 443.2 135.454 442.6C136.921 442 138.521 441.7 140.254 441.7C142.154 441.7 143.871 442.083 145.404 442.85C146.937 443.583 148.171 444.667 149.104 446.1C150.204 444.7 151.587 443.617 153.254 442.85C154.954 442.083 156.804 441.7 158.804 441.7ZM209.745 441.7C213.112 441.7 215.779 442.7 217.745 444.7C219.745 446.667 220.745 449.633 220.745 453.6V469H212.945V454.8C212.945 452.667 212.495 451.083 211.595 450.05C210.729 448.983 209.479 448.45 207.845 448.45C206.012 448.45 204.562 449.05 203.495 450.25C202.429 451.417 201.895 453.167 201.895 455.5V469H194.095V454.8C194.095 450.567 192.395 448.45 188.995 448.45C187.195 448.45 185.762 449.05 184.695 450.25C183.629 451.417 183.095 453.167 183.095 455.5V469H175.295V442.1H182.745V445.2C183.745 444.067 184.962 443.2 186.395 442.6C187.862 442 189.462 441.7 191.195 441.7C193.095 441.7 194.812 442.083 196.345 442.85C197.879 443.583 199.112 444.667 200.045 446.1C201.145 444.7 202.529 443.617 204.195 442.85C205.895 442.083 207.745 441.7 209.745 441.7ZM252.88 455.65C252.88 455.75 252.83 456.45 252.73 457.75H232.38C232.746 459.417 233.613 460.733 234.98 461.7C236.346 462.667 238.046 463.15 240.08 463.15C241.48 463.15 242.713 462.95 243.78 462.55C244.88 462.117 245.896 461.45 246.83 460.55L250.98 465.05C248.446 467.95 244.746 469.4 239.88 469.4C236.846 469.4 234.163 468.817 231.83 467.65C229.496 466.45 227.696 464.8 226.43 462.7C225.163 460.6 224.53 458.217 224.53 455.55C224.53 452.917 225.146 450.55 226.38 448.45C227.646 446.317 229.363 444.667 231.53 443.5C233.73 442.3 236.18 441.7 238.88 441.7C241.513 441.7 243.896 442.267 246.03 443.4C248.163 444.533 249.83 446.167 251.03 448.3C252.263 450.4 252.88 452.85 252.88 455.65ZM238.93 447.6C237.163 447.6 235.68 448.1 234.48 449.1C233.28 450.1 232.546 451.467 232.28 453.2H245.53C245.263 451.5 244.53 450.15 243.33 449.15C242.13 448.117 240.663 447.6 238.93 447.6ZM264.023 445.65C264.956 444.35 266.206 443.367 267.773 442.7C269.373 442.033 271.206 441.7 273.273 441.7V448.9C272.406 448.833 271.823 448.8 271.523 448.8C269.289 448.8 267.539 449.433 266.273 450.7C265.006 451.933 264.373 453.8 264.373 456.3V469H256.573V442.1H264.023V445.65ZM289.166 469.4C286.3 469.4 283.716 468.817 281.416 467.65C279.15 466.45 277.366 464.8 276.066 462.7C274.8 460.6 274.166 458.217 274.166 455.55C274.166 452.883 274.8 450.5 276.066 448.4C277.366 446.3 279.15 444.667 281.416 443.5C283.716 442.3 286.3 441.7 289.166 441.7C292 441.7 294.466 442.3 296.566 443.5C298.7 444.667 300.25 446.35 301.216 448.55L295.166 451.8C293.766 449.333 291.75 448.1 289.116 448.1C287.083 448.1 285.4 448.767 284.066 450.1C282.733 451.433 282.066 453.25 282.066 455.55C282.066 457.85 282.733 459.667 284.066 461C285.4 462.333 287.083 463 289.116 463C291.783 463 293.8 461.767 295.166 459.3L301.216 462.6C300.25 464.733 298.7 466.4 296.566 467.6C294.466 468.8 292 469.4 289.166 469.4ZM330.216 455.65C330.216 455.75 330.166 456.45 330.066 457.75H309.716C310.082 459.417 310.949 460.733 312.316 461.7C313.682 462.667 315.382 463.15 317.416 463.15C318.816 463.15 320.049 462.95 321.116 462.55C322.216 462.117 323.232 461.45 324.166 460.55L328.316 465.05C325.782 467.95 322.082 469.4 317.216 469.4C314.182 469.4 311.499 468.817 309.166 467.65C306.832 466.45 305.032 464.8 303.766 462.7C302.499 460.6 301.866 458.217 301.866 455.55C301.866 452.917 302.482 450.55 303.716 448.45C304.982 446.317 306.699 444.667 308.866 443.5C311.066 442.3 313.516 441.7 316.216 441.7C318.849 441.7 321.232 442.267 323.366 443.4C325.499 444.533 327.166 446.167 328.366 448.3C329.599 450.4 330.216 452.85 330.216 455.65ZM316.266 447.6C314.499 447.6 313.016 448.1 311.816 449.1C310.616 450.1 309.882 451.467 309.616 453.2H322.866C322.599 451.5 321.866 450.15 320.666 449.15C319.466 448.117 317.999 447.6 316.266 447.6Z" fill="#00CAB9"/>
<path d="M341.159 456.85C341.159 455.117 341.542 453.683 342.309 452.55C343.109 451.417 344.259 450.167 345.759 448.8C346.859 447.8 347.659 446.967 348.159 446.3C348.692 445.6 348.959 444.817 348.959 443.95C348.959 442.717 348.459 441.75 347.459 441.05C346.492 440.317 345.192 439.95 343.559 439.95C341.992 439.95 340.592 440.283 339.359 440.95C338.159 441.583 337.142 442.483 336.309 443.65L330.259 440.1C331.659 437.967 333.542 436.317 335.909 435.15C338.309 433.983 341.142 433.4 344.409 433.4C348.242 433.4 351.309 434.217 353.609 435.85C355.942 437.483 357.109 439.75 357.109 442.65C357.109 444.017 356.875 445.217 356.409 446.25C355.975 447.283 355.425 448.167 354.759 448.9C354.125 449.6 353.292 450.417 352.259 451.35C351.025 452.45 350.125 453.383 349.559 454.15C348.992 454.883 348.709 455.783 348.709 456.85H341.159ZM344.959 469.4C343.592 469.4 342.442 468.967 341.509 468.1C340.609 467.2 340.159 466.117 340.159 464.85C340.159 463.583 340.609 462.533 341.509 461.7C342.409 460.833 343.559 460.4 344.959 460.4C346.359 460.4 347.509 460.833 348.409 461.7C349.309 462.533 349.759 463.583 349.759 464.85C349.759 466.117 349.292 467.2 348.359 468.1C347.459 468.967 346.325 469.4 344.959 469.4Z" fill="white"/>
</g>
<defs>
<clipPath id="clip0_328_5568">
<rect width="414" height="571" rx="20" fill="white"/>
</clipPath>
</defs>
</svg>
