<svg width="1810" height="630" viewBox="0 0 1810 630" fill="none" xmlns="http://www.w3.org/2000/svg">
<g clip-path="url(#clip0_324_5374)">
<rect width="1810" height="630" rx="20" fill="#060611"/>
<path d="M13.7706 -13H232L115.031 643H-37V269.748L13.7706 -13Z" fill="#161621" fill-opacity="0.8"/>
<path d="M526.212 -13H788L734.912 643H472L502.055 271.015L526.212 -13Z" fill="#161621" fill-opacity="0.7"/>
<path d="M968.584 -13H1231L1208.21 643L948 637.973L959.534 274.785L968.584 -13Z" fill="#161621" fill-opacity="0.9"/>
<path d="M1310.98 -13H1575L1566.58 643H1302L1310.98 -13Z" fill="#161621" fill-opacity="0.7"/>
<path d="M1591 -13H1847V643H1598.59L1591 -13Z" fill="#161621" fill-opacity="0.9"/>
<path d="M158.781 254.5H174.171V321H158.781V254.5ZM217.123 269.13C223.456 269.13 228.554 271.03 232.418 274.83C236.344 278.63 238.308 284.267 238.308 291.74V321H223.488V294.02C223.488 289.967 222.601 286.958 220.828 284.995C219.054 282.968 216.489 281.955 213.133 281.955C209.396 281.955 206.419 283.127 204.203 285.47C201.986 287.75 200.878 291.17 200.878 295.73V321H186.058V269.89H200.213V275.875C202.176 273.722 204.614 272.075 207.528 270.935C210.441 269.732 213.639 269.13 217.123 269.13ZM281.856 318.53C280.399 319.607 278.594 320.43 276.441 321C274.351 321.507 272.134 321.76 269.791 321.76C263.711 321.76 258.993 320.208 255.636 317.105C252.343 314.002 250.696 309.442 250.696 303.425V282.43H242.811V271.03H250.696V258.585H265.516V271.03H278.246V282.43H265.516V303.235C265.516 305.388 266.054 307.067 267.131 308.27C268.271 309.41 269.854 309.98 271.881 309.98C274.224 309.98 276.219 309.347 277.866 308.08L281.856 318.53ZM335.813 295.635C335.813 295.825 335.718 297.155 335.528 299.625H296.863C297.56 302.792 299.206 305.293 301.803 307.13C304.4 308.967 307.63 309.885 311.493 309.885C314.153 309.885 316.496 309.505 318.523 308.745C320.613 307.922 322.545 306.655 324.318 304.945L332.203 313.495C327.39 319.005 320.36 321.76 311.113 321.76C305.35 321.76 300.251 320.652 295.818 318.435C291.385 316.155 287.965 313.02 285.558 309.03C283.151 305.04 281.948 300.512 281.948 295.445C281.948 290.442 283.12 285.945 285.463 281.955C287.87 277.902 291.131 274.767 295.248 272.55C299.428 270.27 304.083 269.13 309.213 269.13C314.216 269.13 318.745 270.207 322.798 272.36C326.851 274.513 330.018 277.617 332.298 281.67C334.641 285.66 335.813 290.315 335.813 295.635ZM309.308 280.34C305.951 280.34 303.133 281.29 300.853 283.19C298.573 285.09 297.18 287.687 296.673 290.98H321.848C321.341 287.75 319.948 285.185 317.668 283.285C315.388 281.322 312.601 280.34 309.308 280.34ZM356.985 276.635C358.758 274.165 361.133 272.297 364.11 271.03C367.15 269.763 370.633 269.13 374.56 269.13V282.81C372.913 282.683 371.805 282.62 371.235 282.62C366.991 282.62 363.666 283.823 361.26 286.23C358.853 288.573 357.65 292.12 357.65 296.87V321H342.83V269.89H356.985V276.635ZM430.123 295.635C430.123 295.825 430.028 297.155 429.838 299.625H391.173C391.87 302.792 393.516 305.293 396.113 307.13C398.71 308.967 401.94 309.885 405.803 309.885C408.463 309.885 410.806 309.505 412.833 308.745C414.923 307.922 416.855 306.655 418.628 304.945L426.513 313.495C421.7 319.005 414.67 321.76 405.423 321.76C399.66 321.76 394.561 320.652 390.128 318.435C385.695 316.155 382.275 313.02 379.868 309.03C377.461 305.04 376.258 300.512 376.258 295.445C376.258 290.442 377.43 285.945 379.773 281.955C382.18 277.902 385.441 274.767 389.558 272.55C393.738 270.27 398.393 269.13 403.523 269.13C408.526 269.13 413.055 270.207 417.108 272.36C421.161 274.513 424.328 277.617 426.608 281.67C428.951 285.66 430.123 290.315 430.123 295.635ZM403.618 280.34C400.261 280.34 397.443 281.29 395.163 283.19C392.883 285.09 391.49 287.687 390.983 290.98H416.158C415.651 287.75 414.258 285.185 411.978 283.285C409.698 281.322 406.911 280.34 403.618 280.34ZM454.335 321.76C450.091 321.76 445.943 321.253 441.89 320.24C437.836 319.163 434.606 317.833 432.2 316.25L437.14 305.61C439.42 307.067 442.175 308.27 445.405 309.22C448.635 310.107 451.801 310.55 454.905 310.55C461.175 310.55 464.31 308.998 464.31 305.895C464.31 304.438 463.455 303.393 461.745 302.76C460.035 302.127 457.406 301.588 453.86 301.145C449.68 300.512 446.228 299.783 443.505 298.96C440.781 298.137 438.406 296.68 436.38 294.59C434.416 292.5 433.435 289.523 433.435 285.66C433.435 282.43 434.353 279.58 436.19 277.11C438.09 274.577 440.813 272.613 444.36 271.22C447.97 269.827 452.213 269.13 457.09 269.13C460.7 269.13 464.278 269.542 467.825 270.365C471.435 271.125 474.411 272.202 476.755 273.595L471.815 284.14C467.318 281.607 462.41 280.34 457.09 280.34C453.923 280.34 451.548 280.783 449.965 281.67C448.381 282.557 447.59 283.697 447.59 285.09C447.59 286.673 448.445 287.782 450.155 288.415C451.865 289.048 454.588 289.65 458.325 290.22C462.505 290.917 465.925 291.677 468.585 292.5C471.245 293.26 473.556 294.685 475.52 296.775C477.483 298.865 478.465 301.778 478.465 305.515C478.465 308.682 477.515 311.5 475.615 313.97C473.715 316.44 470.928 318.372 467.255 319.765C463.645 321.095 459.338 321.76 454.335 321.76ZM517.723 318.53C516.267 319.607 514.462 320.43 512.308 321C510.218 321.507 508.002 321.76 505.658 321.76C499.578 321.76 494.86 320.208 491.503 317.105C488.21 314.002 486.563 309.442 486.563 303.425V282.43H478.678V271.03H486.563V258.585H501.383V271.03H514.113V282.43H501.383V303.235C501.383 305.388 501.922 307.067 502.998 308.27C504.138 309.41 505.722 309.98 507.748 309.98C510.092 309.98 512.087 309.347 513.733 308.08L517.723 318.53ZM571.68 295.635C571.68 295.825 571.585 297.155 571.395 299.625H532.73C533.427 302.792 535.074 305.293 537.67 307.13C540.267 308.967 543.497 309.885 547.36 309.885C550.02 309.885 552.364 309.505 554.39 308.745C556.48 307.922 558.412 306.655 560.185 304.945L568.07 313.495C563.257 319.005 556.227 321.76 546.98 321.76C541.217 321.76 536.119 320.652 531.685 318.435C527.252 316.155 523.832 313.02 521.425 309.03C519.019 305.04 517.815 300.512 517.815 295.445C517.815 290.442 518.987 285.945 521.33 281.955C523.737 277.902 526.999 274.767 531.115 272.55C535.295 270.27 539.95 269.13 545.08 269.13C550.084 269.13 554.612 270.207 558.665 272.36C562.719 274.513 565.885 277.617 568.165 281.67C570.509 285.66 571.68 290.315 571.68 295.635ZM545.175 280.34C541.819 280.34 539 281.29 536.72 283.19C534.44 285.09 533.047 287.687 532.54 290.98H557.715C557.209 287.75 555.815 285.185 553.535 283.285C551.255 281.322 548.469 280.34 545.175 280.34ZM630.757 250.51V321H616.602V315.11C612.929 319.543 607.609 321.76 600.642 321.76C595.829 321.76 591.459 320.683 587.532 318.53C583.669 316.377 580.629 313.305 578.412 309.315C576.195 305.325 575.087 300.702 575.087 295.445C575.087 290.188 576.195 285.565 578.412 281.575C580.629 277.585 583.669 274.513 587.532 272.36C591.459 270.207 595.829 269.13 600.642 269.13C607.165 269.13 612.264 271.188 615.937 275.305V250.51H630.757ZM603.207 309.6C606.944 309.6 610.047 308.333 612.517 305.8C614.987 303.203 616.222 299.752 616.222 295.445C616.222 291.138 614.987 287.718 612.517 285.185C610.047 282.588 606.944 281.29 603.207 281.29C599.407 281.29 596.272 282.588 593.802 285.185C591.332 287.718 590.097 291.138 590.097 295.445C590.097 299.752 591.332 303.203 593.802 305.8C596.272 308.333 599.407 309.6 603.207 309.6ZM665.678 269.89H680.498V321H665.678V269.89ZM673.088 262.765C670.364 262.765 668.148 261.973 666.438 260.39C664.728 258.807 663.873 256.843 663.873 254.5C663.873 252.157 664.728 250.193 666.438 248.61C668.148 247.027 670.364 246.235 673.088 246.235C675.811 246.235 678.028 246.995 679.738 248.515C681.448 250.035 682.303 251.935 682.303 254.215C682.303 256.685 681.448 258.743 679.738 260.39C678.028 261.973 675.811 262.765 673.088 262.765ZM722.467 269.13C728.8 269.13 733.898 271.03 737.762 274.83C741.688 278.63 743.652 284.267 743.652 291.74V321H728.832V294.02C728.832 289.967 727.945 286.958 726.172 284.995C724.398 282.968 721.833 281.955 718.477 281.955C714.74 281.955 711.763 283.127 709.547 285.47C707.33 287.75 706.222 291.17 706.222 295.73V321H691.402V269.89H705.557V275.875C707.52 273.722 709.958 272.075 712.872 270.935C715.785 269.732 718.983 269.13 722.467 269.13ZM808.5 269.13C813.25 269.13 817.556 270.238 821.42 272.455C825.346 274.608 828.418 277.68 830.635 281.67C832.851 285.597 833.96 290.188 833.96 295.445C833.96 300.702 832.851 305.325 830.635 309.315C828.418 313.242 825.346 316.313 821.42 318.53C817.556 320.683 813.25 321.76 808.5 321.76C801.47 321.76 796.118 319.543 792.445 315.11V321H778.29V250.51H793.11V275.305C796.846 271.188 801.976 269.13 808.5 269.13ZM805.935 309.6C809.735 309.6 812.838 308.333 815.245 305.8C817.715 303.203 818.95 299.752 818.95 295.445C818.95 291.138 817.715 287.718 815.245 285.185C812.838 282.588 809.735 281.29 805.935 281.29C802.135 281.29 799 282.588 796.53 285.185C794.123 287.718 792.92 291.138 792.92 295.445C792.92 299.752 794.123 303.203 796.53 305.8C799 308.333 802.135 309.6 805.935 309.6ZM892.521 269.89V321H878.461V314.92C876.497 317.137 874.154 318.847 871.431 320.05C868.707 321.19 865.762 321.76 862.596 321.76C855.882 321.76 850.562 319.828 846.636 315.965C842.709 312.102 840.746 306.37 840.746 298.77V269.89H855.566V296.585C855.566 304.818 859.017 308.935 865.921 308.935C869.467 308.935 872.317 307.795 874.471 305.515C876.624 303.172 877.701 299.72 877.701 295.16V269.89H892.521ZM903.4 269.89H918.22V321H903.4V269.89ZM910.81 262.765C908.087 262.765 905.87 261.973 904.16 260.39C902.45 258.807 901.595 256.843 901.595 254.5C901.595 252.157 902.45 250.193 904.16 248.61C905.87 247.027 908.087 246.235 910.81 246.235C913.534 246.235 915.75 246.995 917.46 248.515C919.17 250.035 920.025 251.935 920.025 254.215C920.025 256.685 919.17 258.743 917.46 260.39C915.75 261.973 913.534 262.765 910.81 262.765ZM929.124 250.51H943.944V321H929.124V250.51ZM1006.91 250.51V321H992.754V315.11C989.08 319.543 983.76 321.76 976.794 321.76C971.98 321.76 967.61 320.683 963.684 318.53C959.82 316.377 956.78 313.305 954.564 309.315C952.347 305.325 951.239 300.702 951.239 295.445C951.239 290.188 952.347 285.565 954.564 281.575C956.78 277.585 959.82 274.513 963.684 272.36C967.61 270.207 971.98 269.13 976.794 269.13C983.317 269.13 988.415 271.188 992.089 275.305V250.51H1006.91ZM979.359 309.6C983.095 309.6 986.199 308.333 988.669 305.8C991.139 303.203 992.374 299.752 992.374 295.445C992.374 291.138 991.139 287.718 988.669 285.185C986.199 282.588 983.095 281.29 979.359 281.29C975.559 281.29 972.424 282.588 969.954 285.185C967.484 287.718 966.249 291.138 966.249 295.445C966.249 299.752 967.484 303.203 969.954 305.8C972.424 308.333 975.559 309.6 979.359 309.6ZM1017.78 269.89H1032.6V321H1017.78V269.89ZM1025.19 262.765C1022.46 262.765 1020.25 261.973 1018.54 260.39C1016.83 258.807 1015.97 256.843 1015.97 254.5C1015.97 252.157 1016.83 250.193 1018.54 248.61C1020.25 247.027 1022.46 246.235 1025.19 246.235C1027.91 246.235 1030.13 246.995 1031.84 248.515C1033.55 250.035 1034.4 251.935 1034.4 254.215C1034.4 256.685 1033.55 258.743 1031.84 260.39C1030.13 261.973 1027.91 262.765 1025.19 262.765ZM1074.56 269.13C1080.9 269.13 1086 271.03 1089.86 274.83C1093.79 278.63 1095.75 284.267 1095.75 291.74V321H1080.93V294.02C1080.93 289.967 1080.04 286.958 1078.27 284.995C1076.5 282.968 1073.93 281.955 1070.57 281.955C1066.84 281.955 1063.86 283.127 1061.64 285.47C1059.43 287.75 1058.32 291.17 1058.32 295.73V321H1043.5V269.89H1057.65V275.875C1059.62 273.722 1062.06 272.075 1064.97 270.935C1067.88 269.732 1071.08 269.13 1074.56 269.13ZM1159.61 269.89V312.45C1159.61 321.823 1157.18 328.79 1152.3 333.35C1147.42 337.91 1140.3 340.19 1130.92 340.19C1125.98 340.19 1121.3 339.588 1116.86 338.385C1112.43 337.182 1108.76 335.44 1105.84 333.16L1111.73 322.52C1113.89 324.293 1116.61 325.687 1119.9 326.7C1123.2 327.777 1126.49 328.315 1129.78 328.315C1134.91 328.315 1138.68 327.143 1141.09 324.8C1143.56 322.52 1144.79 319.037 1144.79 314.35V312.165C1140.93 316.408 1135.55 318.53 1128.64 318.53C1123.96 318.53 1119.65 317.517 1115.72 315.49C1111.86 313.4 1108.79 310.487 1106.51 306.75C1104.23 303.013 1103.09 298.707 1103.09 293.83C1103.09 288.953 1104.23 284.647 1106.51 280.91C1108.79 277.173 1111.86 274.292 1115.72 272.265C1119.65 270.175 1123.96 269.13 1128.64 269.13C1136.05 269.13 1141.69 271.568 1145.55 276.445V269.89H1159.61ZM1131.59 306.37C1135.52 306.37 1138.71 305.23 1141.18 302.95C1143.72 300.607 1144.98 297.567 1144.98 293.83C1144.98 290.093 1143.72 287.085 1141.18 284.805C1138.71 282.462 1135.52 281.29 1131.59 281.29C1127.66 281.29 1124.43 282.462 1121.9 284.805C1119.37 287.085 1118.1 290.093 1118.1 293.83C1118.1 297.567 1119.37 300.607 1121.9 302.95C1124.43 305.23 1127.66 306.37 1131.59 306.37ZM1227.58 318.53C1226.12 319.607 1224.32 320.43 1222.16 321C1220.07 321.507 1217.86 321.76 1215.51 321.76C1209.43 321.76 1204.71 320.208 1201.36 317.105C1198.06 314.002 1196.42 309.442 1196.42 303.425V282.43H1188.53V271.03H1196.42V258.585H1211.24V271.03H1223.97V282.43H1211.24V303.235C1211.24 305.388 1211.78 307.067 1212.85 308.27C1213.99 309.41 1215.58 309.98 1217.6 309.98C1219.95 309.98 1221.94 309.347 1223.59 308.08L1227.58 318.53ZM1264.11 269.13C1270.44 269.13 1275.54 271.03 1279.41 274.83C1283.33 278.63 1285.3 284.267 1285.3 291.74V321H1270.48V294.02C1270.48 289.967 1269.59 286.958 1267.82 284.995C1266.04 282.968 1263.48 281.955 1260.12 281.955C1256.38 281.955 1253.41 283.127 1251.19 285.47C1248.97 287.75 1247.87 291.17 1247.87 295.73V321H1233.05V250.51H1247.87V275.21C1249.83 273.247 1252.2 271.758 1254.99 270.745C1257.78 269.668 1260.82 269.13 1264.11 269.13ZM1346.5 295.635C1346.5 295.825 1346.41 297.155 1346.22 299.625H1307.55C1308.25 302.792 1309.9 305.293 1312.49 307.13C1315.09 308.967 1318.32 309.885 1322.18 309.885C1324.84 309.885 1327.19 309.505 1329.21 308.745C1331.3 307.922 1333.23 306.655 1335.01 304.945L1342.89 313.495C1338.08 319.005 1331.05 321.76 1321.8 321.76C1316.04 321.76 1310.94 320.652 1306.51 318.435C1302.07 316.155 1298.65 313.02 1296.25 309.03C1293.84 305.04 1292.64 300.512 1292.64 295.445C1292.64 290.442 1293.81 285.945 1296.15 281.955C1298.56 277.902 1301.82 274.767 1305.94 272.55C1310.12 270.27 1314.77 269.13 1319.9 269.13C1324.91 269.13 1329.43 270.207 1333.49 272.36C1337.54 274.513 1340.71 277.617 1342.99 281.67C1345.33 285.66 1346.5 290.315 1346.5 295.635ZM1320 280.34C1316.64 280.34 1313.82 281.29 1311.54 283.19C1309.26 285.09 1307.87 287.687 1307.36 290.98H1332.54C1332.03 287.75 1330.64 285.185 1328.36 283.285C1326.08 281.322 1323.29 280.34 1320 280.34ZM1393.82 271.03H1406.93V282.43H1394.2V321H1379.38V282.43H1371.49V271.03H1379.38V268.75C1379.38 262.923 1381.09 258.3 1384.51 254.88C1387.99 251.46 1392.87 249.75 1399.14 249.75C1401.35 249.75 1403.44 250.003 1405.41 250.51C1407.43 250.953 1409.11 251.618 1410.44 252.505L1406.55 263.24C1404.84 262.037 1402.84 261.435 1400.56 261.435C1396.07 261.435 1393.82 263.905 1393.82 268.845V271.03ZM1462.95 269.89V321H1448.89V314.92C1446.93 317.137 1444.58 318.847 1441.86 320.05C1439.14 321.19 1436.19 321.76 1433.03 321.76C1426.31 321.76 1420.99 319.828 1417.07 315.965C1413.14 312.102 1411.18 306.37 1411.18 298.77V269.89H1426V296.585C1426 304.818 1429.45 308.935 1436.35 308.935C1439.9 308.935 1442.75 307.795 1444.9 305.515C1447.05 303.172 1448.13 299.72 1448.13 295.16V269.89H1462.95ZM1506.8 318.53C1505.34 319.607 1503.53 320.43 1501.38 321C1499.29 321.507 1497.07 321.76 1494.73 321.76C1488.65 321.76 1483.93 320.208 1480.58 317.105C1477.28 314.002 1475.64 309.442 1475.64 303.425V282.43H1467.75V271.03H1475.64V258.585H1490.46V271.03H1503.19V282.43H1490.46V303.235C1490.46 305.388 1490.99 307.067 1492.07 308.27C1493.21 309.41 1494.79 309.98 1496.82 309.98C1499.16 309.98 1501.16 309.347 1502.81 308.08L1506.8 318.53ZM1563.75 269.89V321H1549.69V314.92C1547.73 317.137 1545.39 318.847 1542.66 320.05C1539.94 321.19 1537 321.76 1533.83 321.76C1527.12 321.76 1521.8 319.828 1517.87 315.965C1513.94 312.102 1511.98 306.37 1511.98 298.77V269.89H1526.8V296.585C1526.8 304.818 1530.25 308.935 1537.15 308.935C1540.7 308.935 1543.55 307.795 1545.7 305.515C1547.86 303.172 1548.93 299.72 1548.93 295.16V269.89H1563.75ZM1588.79 276.635C1590.56 274.165 1592.94 272.297 1595.91 271.03C1598.95 269.763 1602.44 269.13 1606.36 269.13V282.81C1604.72 282.683 1603.61 282.62 1603.04 282.62C1598.8 282.62 1595.47 283.823 1593.06 286.23C1590.66 288.573 1589.45 292.12 1589.45 296.87V321H1574.63V269.89H1588.79V276.635ZM1661.93 295.635C1661.93 295.825 1661.83 297.155 1661.64 299.625H1622.98C1623.67 302.792 1625.32 305.293 1627.92 307.13C1630.51 308.967 1633.74 309.885 1637.61 309.885C1640.27 309.885 1642.61 309.505 1644.64 308.745C1646.73 307.922 1648.66 306.655 1650.43 304.945L1658.32 313.495C1653.5 319.005 1646.47 321.76 1637.23 321.76C1631.46 321.76 1626.37 320.652 1621.93 318.435C1617.5 316.155 1614.08 313.02 1611.67 309.03C1609.27 305.04 1608.06 300.512 1608.06 295.445C1608.06 290.442 1609.23 285.945 1611.58 281.955C1613.98 277.902 1617.25 274.767 1621.36 272.55C1625.54 270.27 1630.2 269.13 1635.33 269.13C1640.33 269.13 1644.86 270.207 1648.91 272.36C1652.97 274.513 1656.13 277.617 1658.41 281.67C1660.76 285.66 1661.93 290.315 1661.93 295.635ZM1635.42 280.34C1632.07 280.34 1629.25 281.29 1626.97 283.19C1624.69 285.09 1623.29 287.687 1622.79 290.98H1647.96C1647.46 287.75 1646.06 285.185 1643.78 283.285C1641.5 281.322 1638.72 280.34 1635.42 280.34ZM298.629 437.76C293.246 437.76 288.401 436.652 284.094 434.435C279.851 432.155 276.526 429.02 274.119 425.03C271.712 421.04 270.509 416.512 270.509 411.445C270.509 406.378 271.712 401.85 274.119 397.86C276.526 393.87 279.851 390.767 284.094 388.55C288.401 386.27 293.246 385.13 298.629 385.13C304.012 385.13 308.826 386.27 313.069 388.55C317.312 390.767 320.637 393.87 323.044 397.86C325.451 401.85 326.654 406.378 326.654 411.445C326.654 416.512 325.451 421.04 323.044 425.03C320.637 429.02 317.312 432.155 313.069 434.435C308.826 436.652 304.012 437.76 298.629 437.76ZM298.629 425.6C302.429 425.6 305.532 424.333 307.939 421.8C310.409 419.203 311.644 415.752 311.644 411.445C311.644 407.138 310.409 403.718 307.939 401.185C305.532 398.588 302.429 397.29 298.629 397.29C294.829 397.29 291.694 398.588 289.224 401.185C286.754 403.718 285.519 407.138 285.519 411.445C285.519 415.752 286.754 419.203 289.224 421.8C291.694 424.333 294.829 425.6 298.629 425.6ZM349.955 387.03H363.065V398.43H350.335V437H335.515V398.43H327.63V387.03H335.515V384.75C335.515 378.923 337.225 374.3 340.645 370.88C344.128 367.46 349.005 365.75 355.275 365.75C357.492 365.75 359.582 366.003 361.545 366.51C363.572 366.953 365.25 367.618 366.58 368.505L362.685 379.24C360.975 378.037 358.98 377.435 356.7 377.435C352.203 377.435 349.955 379.905 349.955 384.845V387.03Z" fill="#F5F5F5"/>
<path d="M436.493 422.75H405.618L399.728 437H383.958L413.598 370.5H428.798L458.533 437H442.383L436.493 422.75ZM431.648 411.065L421.103 385.605L410.558 411.065H431.648ZM512.099 385.89V437H498.039V430.92C496.076 433.137 493.733 434.847 491.009 436.05C488.286 437.19 485.341 437.76 482.174 437.76C475.461 437.76 470.141 435.828 466.214 431.965C462.288 428.102 460.324 422.37 460.324 414.77V385.89H475.144V412.585C475.144 420.818 478.596 424.935 485.499 424.935C489.046 424.935 491.896 423.795 494.049 421.515C496.203 419.172 497.279 415.72 497.279 411.16V385.89H512.099ZM555.944 434.53C554.487 435.607 552.682 436.43 550.529 437C548.439 437.507 546.222 437.76 543.879 437.76C537.799 437.76 533.081 436.208 529.724 433.105C526.431 430.002 524.784 425.442 524.784 419.425V398.43H516.899V387.03H524.784V374.585H539.604V387.03H552.334V398.43H539.604V419.235C539.604 421.388 540.142 423.067 541.219 424.27C542.359 425.41 543.942 425.98 545.969 425.98C548.312 425.98 550.307 425.347 551.954 424.08L555.944 434.53ZM584.156 437.76C578.773 437.76 573.928 436.652 569.621 434.435C565.378 432.155 562.053 429.02 559.646 425.03C557.239 421.04 556.036 416.512 556.036 411.445C556.036 406.378 557.239 401.85 559.646 397.86C562.053 393.87 565.378 390.767 569.621 388.55C573.928 386.27 578.773 385.13 584.156 385.13C589.539 385.13 594.353 386.27 598.596 388.55C602.839 390.767 606.164 393.87 608.571 397.86C610.978 401.85 612.181 406.378 612.181 411.445C612.181 416.512 610.978 421.04 608.571 425.03C606.164 429.02 602.839 432.155 598.596 434.435C594.353 436.652 589.539 437.76 584.156 437.76ZM584.156 425.6C587.956 425.6 591.059 424.333 593.466 421.8C595.936 419.203 597.171 415.752 597.171 411.445C597.171 407.138 595.936 403.718 593.466 401.185C591.059 398.588 587.956 397.29 584.156 397.29C580.356 397.29 577.221 398.588 574.751 401.185C572.281 403.718 571.046 407.138 571.046 411.445C571.046 415.752 572.281 419.203 574.751 421.8C577.221 424.333 580.356 425.6 584.156 425.6ZM684.692 385.13C691.089 385.13 696.155 387.03 699.892 390.83C703.692 394.567 705.592 400.203 705.592 407.74V437H690.772V410.02C690.772 405.967 689.917 402.958 688.207 400.995C686.56 398.968 684.185 397.955 681.082 397.955C677.599 397.955 674.844 399.095 672.817 401.375C670.79 403.592 669.777 406.917 669.777 411.35V437H654.957V410.02C654.957 401.977 651.727 397.955 645.267 397.955C641.847 397.955 639.124 399.095 637.097 401.375C635.07 403.592 634.057 406.917 634.057 411.35V437H619.237V385.89H633.392V391.78C635.292 389.627 637.604 387.98 640.327 386.84C643.114 385.7 646.154 385.13 649.447 385.13C653.057 385.13 656.319 385.858 659.232 387.315C662.145 388.708 664.489 390.767 666.262 393.49C668.352 390.83 670.98 388.772 674.147 387.315C677.377 385.858 680.892 385.13 684.692 385.13ZM740.902 437.76C735.519 437.76 730.674 436.652 726.367 434.435C722.124 432.155 718.799 429.02 716.392 425.03C713.986 421.04 712.782 416.512 712.782 411.445C712.782 406.378 713.986 401.85 716.392 397.86C718.799 393.87 722.124 390.767 726.367 388.55C730.674 386.27 735.519 385.13 740.902 385.13C746.286 385.13 751.099 386.27 755.342 388.55C759.586 390.767 762.911 393.87 765.317 397.86C767.724 401.85 768.927 406.378 768.927 411.445C768.927 416.512 767.724 421.04 765.317 425.03C762.911 429.02 759.586 432.155 755.342 434.435C751.099 436.652 746.286 437.76 740.902 437.76ZM740.902 425.6C744.702 425.6 747.806 424.333 750.212 421.8C752.682 419.203 753.917 415.752 753.917 411.445C753.917 407.138 752.682 403.718 750.212 401.185C747.806 398.588 744.702 397.29 740.902 397.29C737.102 397.29 733.967 398.588 731.497 401.185C729.027 403.718 727.792 407.138 727.792 411.445C727.792 415.752 729.027 419.203 731.497 421.8C733.967 424.333 737.102 425.6 740.902 425.6ZM808.948 434.53C807.492 435.607 805.687 436.43 803.533 437C801.443 437.507 799.227 437.76 796.883 437.76C790.803 437.76 786.085 436.208 782.728 433.105C779.435 430.002 777.788 425.442 777.788 419.425V398.43H769.903V387.03H777.788V374.585H792.608V387.03H805.338V398.43H792.608V419.235C792.608 421.388 793.147 423.067 794.223 424.27C795.363 425.41 796.947 425.98 798.973 425.98C801.317 425.98 803.312 425.347 804.958 424.08L808.948 434.53ZM814.418 385.89H829.238V437H814.418V385.89ZM821.828 378.765C819.104 378.765 816.888 377.973 815.178 376.39C813.468 374.807 812.613 372.843 812.613 370.5C812.613 368.157 813.468 366.193 815.178 364.61C816.888 363.027 819.104 362.235 821.828 362.235C824.551 362.235 826.768 362.995 828.478 364.515C830.188 366.035 831.043 367.935 831.043 370.215C831.043 372.685 830.188 374.743 828.478 376.39C826.768 377.973 824.551 378.765 821.828 378.765ZM890.872 385.89L869.307 437H854.012L832.542 385.89H847.837L861.992 420.66L876.622 385.89H890.872ZM942.742 411.635C942.742 411.825 942.647 413.155 942.457 415.625H903.792C904.489 418.792 906.136 421.293 908.732 423.13C911.329 424.967 914.559 425.885 918.422 425.885C921.082 425.885 923.426 425.505 925.452 424.745C927.542 423.922 929.474 422.655 931.247 420.945L939.132 429.495C934.319 435.005 927.289 437.76 918.042 437.76C912.279 437.76 907.181 436.652 902.747 434.435C898.314 432.155 894.894 429.02 892.487 425.03C890.081 421.04 888.877 416.512 888.877 411.445C888.877 406.442 890.049 401.945 892.392 397.955C894.799 393.902 898.061 390.767 902.177 388.55C906.357 386.27 911.012 385.13 916.142 385.13C921.146 385.13 925.674 386.207 929.727 388.36C933.781 390.513 936.947 393.617 939.227 397.67C941.571 401.66 942.742 406.315 942.742 411.635ZM916.237 396.34C912.881 396.34 910.062 397.29 907.782 399.19C905.502 401.09 904.109 403.687 903.602 406.98H928.777C928.271 403.75 926.877 401.185 924.597 399.285C922.317 397.322 919.531 396.34 916.237 396.34ZM1006.68 438.14C999.907 438.14 993.763 436.683 988.253 433.77C982.807 430.793 978.5 426.708 975.333 421.515C972.23 416.258 970.678 410.337 970.678 403.75C970.678 397.163 972.23 391.273 975.333 386.08C978.5 380.823 982.807 376.738 988.253 373.825C993.763 370.848 999.938 369.36 1006.78 369.36C1012.54 369.36 1017.74 370.373 1022.36 372.4C1027.05 374.427 1030.97 377.34 1034.14 381.14L1024.26 390.26C1019.76 385.067 1014.19 382.47 1007.54 382.47C1003.42 382.47 999.748 383.388 996.518 385.225C993.288 386.998 990.755 389.5 988.918 392.73C987.145 395.96 986.258 399.633 986.258 403.75C986.258 407.867 987.145 411.54 988.918 414.77C990.755 418 993.288 420.533 996.518 422.37C999.748 424.143 1003.42 425.03 1007.54 425.03C1014.19 425.03 1019.76 422.402 1024.26 417.145L1034.14 426.265C1030.97 430.128 1027.05 433.073 1022.36 435.1C1017.67 437.127 1012.45 438.14 1006.68 438.14ZM1063.19 437.76C1057.81 437.76 1052.97 436.652 1048.66 434.435C1044.42 432.155 1041.09 429.02 1038.68 425.03C1036.28 421.04 1035.07 416.512 1035.07 411.445C1035.07 406.378 1036.28 401.85 1038.68 397.86C1041.09 393.87 1044.42 390.767 1048.66 388.55C1052.97 386.27 1057.81 385.13 1063.19 385.13C1068.58 385.13 1073.39 386.27 1077.63 388.55C1081.88 390.767 1085.2 393.87 1087.61 397.86C1090.02 401.85 1091.22 406.378 1091.22 411.445C1091.22 416.512 1090.02 421.04 1087.61 425.03C1085.2 429.02 1081.88 432.155 1077.63 434.435C1073.39 436.652 1068.58 437.76 1063.19 437.76ZM1063.19 425.6C1066.99 425.6 1070.1 424.333 1072.5 421.8C1074.97 419.203 1076.21 415.752 1076.21 411.445C1076.21 407.138 1074.97 403.718 1072.5 401.185C1070.1 398.588 1066.99 397.29 1063.19 397.29C1059.39 397.29 1056.26 398.588 1053.79 401.185C1051.32 403.718 1050.08 407.138 1050.08 411.445C1050.08 415.752 1051.32 419.203 1053.79 421.8C1056.26 424.333 1059.39 425.6 1063.19 425.6ZM1163.73 385.13C1170.13 385.13 1175.19 387.03 1178.93 390.83C1182.73 394.567 1184.63 400.203 1184.63 407.74V437H1169.81V410.02C1169.81 405.967 1168.95 402.958 1167.24 400.995C1165.6 398.968 1163.22 397.955 1160.12 397.955C1156.64 397.955 1153.88 399.095 1151.85 401.375C1149.83 403.592 1148.81 406.917 1148.81 411.35V437H1133.99V410.02C1133.99 401.977 1130.76 397.955 1124.3 397.955C1120.88 397.955 1118.16 399.095 1116.13 401.375C1114.11 403.592 1113.09 406.917 1113.09 411.35V437H1098.27V385.89H1112.43V391.78C1114.33 389.627 1116.64 387.98 1119.36 386.84C1122.15 385.7 1125.19 385.13 1128.48 385.13C1132.09 385.13 1135.36 385.858 1138.27 387.315C1141.18 388.708 1143.53 390.767 1145.3 393.49C1147.39 390.83 1150.02 388.772 1153.18 387.315C1156.41 385.858 1159.93 385.13 1163.73 385.13ZM1260.52 385.13C1266.91 385.13 1271.98 387.03 1275.72 390.83C1279.52 394.567 1281.42 400.203 1281.42 407.74V437H1266.6V410.02C1266.6 405.967 1265.74 402.958 1264.03 400.995C1262.39 398.968 1260.01 397.955 1256.91 397.955C1253.42 397.955 1250.67 399.095 1248.64 401.375C1246.62 403.592 1245.6 406.917 1245.6 411.35V437H1230.78V410.02C1230.78 401.977 1227.55 397.955 1221.09 397.955C1217.67 397.955 1214.95 399.095 1212.92 401.375C1210.9 403.592 1209.88 406.917 1209.88 411.35V437H1195.06V385.89H1209.22V391.78C1211.12 389.627 1213.43 387.98 1216.15 386.84C1218.94 385.7 1221.98 385.13 1225.27 385.13C1228.88 385.13 1232.14 385.858 1235.06 387.315C1237.97 388.708 1240.31 390.767 1242.09 393.49C1244.18 390.83 1246.81 388.772 1249.97 387.315C1253.2 385.858 1256.72 385.13 1260.52 385.13ZM1342.47 411.635C1342.47 411.825 1342.38 413.155 1342.19 415.625H1303.52C1304.22 418.792 1305.87 421.293 1308.46 423.13C1311.06 424.967 1314.29 425.885 1318.15 425.885C1320.81 425.885 1323.16 425.505 1325.18 424.745C1327.27 423.922 1329.21 422.655 1330.98 420.945L1338.86 429.495C1334.05 435.005 1327.02 437.76 1317.77 437.76C1312.01 437.76 1306.91 436.652 1302.48 434.435C1298.05 432.155 1294.63 429.02 1292.22 425.03C1289.81 421.04 1288.61 416.512 1288.61 411.445C1288.61 406.442 1289.78 401.945 1292.12 397.955C1294.53 393.902 1297.79 390.767 1301.91 388.55C1306.09 386.27 1310.74 385.13 1315.87 385.13C1320.88 385.13 1325.41 386.207 1329.46 388.36C1333.51 390.513 1336.68 393.617 1338.96 397.67C1341.3 401.66 1342.47 406.315 1342.47 411.635ZM1315.97 396.34C1312.61 396.34 1309.79 397.29 1307.51 399.19C1305.23 401.09 1303.84 403.687 1303.33 406.98H1328.51C1328 403.75 1326.61 401.185 1324.33 399.285C1322.05 397.322 1319.26 396.34 1315.97 396.34ZM1363.65 392.635C1365.42 390.165 1367.79 388.297 1370.77 387.03C1373.81 385.763 1377.29 385.13 1381.22 385.13V398.81C1379.57 398.683 1378.47 398.62 1377.9 398.62C1373.65 398.62 1370.33 399.823 1367.92 402.23C1365.51 404.573 1364.31 408.12 1364.31 412.87V437H1349.49V385.89H1363.65V392.635ZM1411.42 437.76C1405.97 437.76 1401.06 436.652 1396.69 434.435C1392.39 432.155 1389 429.02 1386.53 425.03C1384.12 421.04 1382.92 416.512 1382.92 411.445C1382.92 406.378 1384.12 401.85 1386.53 397.86C1389 393.87 1392.39 390.767 1396.69 388.55C1401.06 386.27 1405.97 385.13 1411.42 385.13C1416.8 385.13 1421.49 386.27 1425.48 388.55C1429.53 390.767 1432.48 393.965 1434.31 398.145L1422.82 404.32C1420.16 399.633 1416.33 397.29 1411.32 397.29C1407.46 397.29 1404.26 398.557 1401.73 401.09C1399.19 403.623 1397.93 407.075 1397.93 411.445C1397.93 415.815 1399.19 419.267 1401.73 421.8C1404.26 424.333 1407.46 425.6 1411.32 425.6C1416.39 425.6 1420.22 423.257 1422.82 418.57L1434.31 424.84C1432.48 428.893 1429.53 432.06 1425.48 434.34C1421.49 436.62 1416.8 437.76 1411.42 437.76ZM1489.41 411.635C1489.41 411.825 1489.32 413.155 1489.13 415.625H1450.46C1451.16 418.792 1452.81 421.293 1455.4 423.13C1458 424.967 1461.23 425.885 1465.09 425.885C1467.75 425.885 1470.1 425.505 1472.12 424.745C1474.21 423.922 1476.14 422.655 1477.92 420.945L1485.8 429.495C1480.99 435.005 1473.96 437.76 1464.71 437.76C1458.95 437.76 1453.85 436.652 1449.42 434.435C1444.98 432.155 1441.56 429.02 1439.16 425.03C1436.75 421.04 1435.55 416.512 1435.55 411.445C1435.55 406.442 1436.72 401.945 1439.06 397.955C1441.47 393.902 1444.73 390.767 1448.85 388.55C1453.03 386.27 1457.68 385.13 1462.81 385.13C1467.82 385.13 1472.34 386.207 1476.4 388.36C1480.45 390.513 1483.62 393.617 1485.9 397.67C1488.24 401.66 1489.41 406.315 1489.41 411.635ZM1462.91 396.34C1459.55 396.34 1456.73 397.29 1454.45 399.19C1452.17 401.09 1450.78 403.687 1450.27 406.98H1475.45C1474.94 403.75 1473.55 401.185 1471.27 399.285C1468.99 397.322 1466.2 396.34 1462.91 396.34Z" fill="#00CAB9"/>
<path d="M1510.2 413.915C1510.2 410.622 1510.93 407.898 1512.39 405.745C1513.91 403.592 1516.09 401.217 1518.94 398.62C1521.03 396.72 1522.55 395.137 1523.5 393.87C1524.52 392.54 1525.02 391.052 1525.02 389.405C1525.02 387.062 1524.07 385.225 1522.17 383.895C1520.34 382.502 1517.87 381.805 1514.76 381.805C1511.79 381.805 1509.13 382.438 1506.78 383.705C1504.5 384.908 1502.57 386.618 1500.99 388.835L1489.49 382.09C1492.15 378.037 1495.73 374.902 1500.23 372.685C1504.79 370.468 1510.17 369.36 1516.38 369.36C1523.66 369.36 1529.49 370.912 1533.86 374.015C1538.29 377.118 1540.51 381.425 1540.51 386.935C1540.51 389.532 1540.07 391.812 1539.18 393.775C1538.36 395.738 1537.31 397.417 1536.04 398.81C1534.84 400.14 1533.26 401.692 1531.29 403.465C1528.95 405.555 1527.24 407.328 1526.16 408.785C1525.09 410.178 1524.55 411.888 1524.55 413.915H1510.2ZM1517.42 437.76C1514.83 437.76 1512.64 436.937 1510.87 435.29C1509.16 433.58 1508.3 431.522 1508.3 429.115C1508.3 426.708 1509.16 424.713 1510.87 423.13C1512.58 421.483 1514.76 420.66 1517.42 420.66C1520.08 420.66 1522.27 421.483 1523.98 423.13C1525.69 424.713 1526.54 426.708 1526.54 429.115C1526.54 431.522 1525.66 433.58 1523.88 435.29C1522.17 436.937 1520.02 437.76 1517.42 437.76Z" fill="white"/>
<rect x="780" y="133" width="249.923" height="57" rx="11.6923" fill="#1B363A"/>
<path d="M814.583 170L810.071 152.929H813.412L816.485 166.513L820.094 152.929H823.533L827.045 166.513L830.117 152.929H833.483L828.849 170H825.142L821.753 157.343L818.265 170H814.583ZM837.696 170V152.929H848.841V155.441H840.818V160.123H848.109V162.562H840.818V167.488H848.841V170H837.696ZM853.087 158.928L854.429 152.929H857.721L855.233 158.928H853.087ZM862.127 170V152.929H868.394C869.76 152.929 870.882 153.165 871.76 153.636C872.654 154.091 873.321 154.717 873.76 155.514C874.199 156.294 874.418 157.164 874.418 158.123C874.418 159.164 874.142 160.115 873.589 160.977C873.052 161.838 872.207 162.464 871.053 162.855L874.589 170H871.004L867.833 163.269H865.248V170H862.127ZM865.248 160.977H868.199C869.24 160.977 870.004 160.725 870.492 160.221C870.979 159.717 871.223 159.05 871.223 158.221C871.223 157.408 870.979 156.758 870.492 156.27C870.02 155.782 869.248 155.538 868.175 155.538H865.248V160.977ZM879.272 170V152.929H890.417V155.441H882.394V160.123H889.685V162.562H882.394V167.488H890.417V170H879.272ZM903.084 170V152.929H906.205V160.026H913.863V152.929H916.985V170H913.863V162.562H906.205V170H903.084ZM922.253 170V152.929H925.375V170H922.253ZM930.635 170V152.929H936.902C938.268 152.929 939.39 153.165 940.268 153.636C941.162 154.091 941.828 154.717 942.267 155.514C942.706 156.294 942.926 157.164 942.926 158.123C942.926 159.164 942.649 160.115 942.097 160.977C941.56 161.838 940.715 162.464 939.56 162.855L943.096 170H939.512L936.341 163.269H933.756V170H930.635ZM933.756 160.977H936.707C937.748 160.977 938.512 160.725 938.999 160.221C939.487 159.717 939.731 159.05 939.731 158.221C939.731 157.408 939.487 156.758 938.999 156.27C938.528 155.782 937.756 155.538 936.683 155.538H933.756V160.977ZM947.78 170V152.929H950.901V170H947.78ZM956.161 170V152.929H959.283L967.306 164.952V152.929H970.428V170H967.306L959.283 158.002V170H956.161ZM983.15 170.293C981.541 170.293 980.134 169.927 978.931 169.195C977.728 168.464 976.793 167.447 976.127 166.147C975.46 164.83 975.127 163.302 975.127 161.562C975.127 159.806 975.468 158.262 976.151 156.929C976.85 155.579 977.834 154.53 979.102 153.783C980.386 153.018 981.907 152.636 983.662 152.636C985.662 152.636 987.321 153.116 988.637 154.075C989.954 155.034 990.808 156.359 991.198 158.05H987.711C987.451 157.254 986.979 156.636 986.296 156.197C985.613 155.742 984.736 155.514 983.662 155.514C981.955 155.514 980.638 156.059 979.712 157.148C978.785 158.221 978.322 159.701 978.322 161.586C978.322 163.472 978.777 164.936 979.687 165.976C980.614 167 981.866 167.513 983.443 167.513C984.988 167.513 986.15 167.098 986.93 166.269C987.727 165.423 988.207 164.318 988.369 162.952H984.053V160.611H991.515V170H988.637L988.394 167.756C987.841 168.569 987.15 169.195 986.321 169.634C985.492 170.073 984.435 170.293 983.15 170.293ZM997.086 164.61L996.745 152.929H1000.09L999.72 164.61H997.086ZM998.476 170.171C997.891 170.171 997.411 169.992 997.037 169.634C996.68 169.277 996.501 168.846 996.501 168.342C996.501 167.821 996.68 167.382 997.037 167.025C997.411 166.667 997.891 166.488 998.476 166.488C999.029 166.488 999.484 166.667 999.842 167.025C1000.22 167.382 1000.4 167.821 1000.4 168.342C1000.4 168.846 1000.22 169.277 999.842 169.634C999.484 169.992 999.029 170.171 998.476 170.171Z" fill="#5AC7B9"/>
</g>
<defs>
<clipPath id="clip0_324_5374">
<rect width="1810" height="630" rx="20" fill="white"/>
</clipPath>
</defs>
</svg>
